G04 Layer_Color=65535*
%FSLAX25Y25*%
%MOIN*%
G70*
G01*
G75*
%ADD22C,0.01000*%
%ADD29C,0.00600*%
%ADD30C,0.00300*%
%ADD31C,0.00984*%
%ADD32C,0.02362*%
%ADD33C,0.00787*%
%ADD34C,0.00500*%
D22*
X490998Y158500D02*
X486000D01*
X485000Y157500D01*
Y155501D01*
X486000Y154501D01*
X490998D01*
X485000Y152502D02*
Y150503D01*
Y151502D01*
X490998D01*
X489998Y152502D01*
Y147504D02*
X490998Y146504D01*
Y144504D01*
X489998Y143505D01*
X486000D01*
X485000Y144504D01*
Y146504D01*
X486000Y147504D01*
X489998D01*
X387300Y322898D02*
Y317900D01*
X388300Y316900D01*
X390299D01*
X391299Y317900D01*
Y322898D01*
X397297D02*
X395297Y321898D01*
X393298Y319899D01*
Y317900D01*
X394298Y316900D01*
X396297D01*
X397297Y317900D01*
Y318899D01*
X396297Y319899D01*
X393298D01*
X184300Y356398D02*
Y351400D01*
X185300Y350400D01*
X187299D01*
X188299Y351400D01*
Y356398D01*
X194297D02*
X190298D01*
Y353399D01*
X192297Y354399D01*
X193297D01*
X194297Y353399D01*
Y351400D01*
X193297Y350400D01*
X191298D01*
X190298Y351400D01*
X385250Y280948D02*
Y275950D01*
X386250Y274950D01*
X388249D01*
X389249Y275950D01*
Y280948D01*
X394247Y274950D02*
Y280948D01*
X391248Y277949D01*
X395247D01*
X273200Y282745D02*
Y277746D01*
X274200Y276747D01*
X276199D01*
X277199Y277746D01*
Y282745D01*
X279198Y281745D02*
X280198Y282745D01*
X282197D01*
X283197Y281745D01*
Y280745D01*
X282197Y279746D01*
X281197D01*
X282197D01*
X283197Y278746D01*
Y277746D01*
X282197Y276747D01*
X280198D01*
X279198Y277746D01*
X186670Y227248D02*
Y222250D01*
X187669Y221250D01*
X189669D01*
X190668Y222250D01*
Y227248D01*
X196667Y221250D02*
X192668D01*
X196667Y225249D01*
Y226248D01*
X195667Y227248D01*
X193667D01*
X192668Y226248D01*
X261670Y225748D02*
Y220750D01*
X262669Y219750D01*
X264669D01*
X265668Y220750D01*
Y225748D01*
X267668Y219750D02*
X269667D01*
X268667D01*
Y225748D01*
X267668Y224748D01*
X581600Y271200D02*
Y277198D01*
X584599D01*
X585599Y276198D01*
Y274199D01*
X584599Y273199D01*
X581600D01*
X583599D02*
X585599Y271200D01*
X591597D02*
X587598D01*
X591597Y275199D01*
Y276198D01*
X590597Y277198D01*
X588598D01*
X587598Y276198D01*
X593596D02*
X594596Y277198D01*
X596595D01*
X597595Y276198D01*
Y275199D01*
X596595Y274199D01*
X595596D01*
X596595D01*
X597595Y273199D01*
Y272200D01*
X596595Y271200D01*
X594596D01*
X593596Y272200D01*
X340775Y209900D02*
Y215898D01*
X343774D01*
X344774Y214898D01*
Y212899D01*
X343774Y211899D01*
X340775D01*
X342774D02*
X344774Y209900D01*
X350772D02*
X346773D01*
X350772Y213899D01*
Y214898D01*
X349772Y215898D01*
X347773D01*
X346773Y214898D01*
X356770Y209900D02*
X352771D01*
X356770Y213899D01*
Y214898D01*
X355770Y215898D01*
X353771D01*
X352771Y214898D01*
X166410Y210650D02*
Y216648D01*
X169409D01*
X170408Y215648D01*
Y213649D01*
X169409Y212649D01*
X166410D01*
X168409D02*
X170408Y210650D01*
X172408D02*
X174407D01*
X173408D01*
Y216648D01*
X172408Y215648D01*
X177406D02*
X178406Y216648D01*
X180405D01*
X181405Y215648D01*
Y214649D01*
X180405Y213649D01*
X181405Y212649D01*
Y211650D01*
X180405Y210650D01*
X178406D01*
X177406Y211650D01*
Y212649D01*
X178406Y213649D01*
X177406Y214649D01*
Y215648D01*
X178406Y213649D02*
X180405D01*
X148560Y177900D02*
Y183898D01*
X151559D01*
X152559Y182898D01*
Y180899D01*
X151559Y179899D01*
X148560D01*
X150559D02*
X152559Y177900D01*
X154558D02*
X156557D01*
X155558D01*
Y183898D01*
X154558Y182898D01*
X163555Y183898D02*
X159556D01*
Y180899D01*
X161556Y181899D01*
X162555D01*
X163555Y180899D01*
Y178900D01*
X162555Y177900D01*
X160556D01*
X159556Y178900D01*
X250000Y307000D02*
Y312998D01*
X252999D01*
X253999Y311998D01*
Y309999D01*
X252999Y308999D01*
X250000D01*
X251999D02*
X253999Y307000D01*
X255998D02*
X257997D01*
X256998D01*
Y312998D01*
X255998Y311998D01*
X263996Y307000D02*
Y312998D01*
X260996Y309999D01*
X264995D01*
X388275Y334900D02*
Y340898D01*
X391274D01*
X392274Y339898D01*
Y337899D01*
X391274Y336899D01*
X388275D01*
X390274D02*
X392274Y334900D01*
X394273D02*
X396272D01*
X395273D01*
Y340898D01*
X394273Y339898D01*
X399271D02*
X400271Y340898D01*
X402271D01*
X403270Y339898D01*
Y338899D01*
X402271Y337899D01*
X401271D01*
X402271D01*
X403270Y336899D01*
Y335900D01*
X402271Y334900D01*
X400271D01*
X399271Y335900D01*
X149775Y295400D02*
Y301398D01*
X152774D01*
X153774Y300398D01*
Y298399D01*
X152774Y297399D01*
X149775D01*
X151774D02*
X153774Y295400D01*
X155773D02*
X157772D01*
X156773D01*
Y301398D01*
X155773Y300398D01*
X164770Y295400D02*
X160771D01*
X164770Y299399D01*
Y300398D01*
X163770Y301398D01*
X161771D01*
X160771Y300398D01*
X249675Y332200D02*
Y338198D01*
X252674D01*
X253674Y337198D01*
Y335199D01*
X252674Y334199D01*
X249675D01*
X251674D02*
X253674Y332200D01*
X255673D02*
X257672D01*
X256673D01*
Y338198D01*
X255673Y337198D01*
X260671Y332200D02*
X262671D01*
X261671D01*
Y338198D01*
X260671Y337198D01*
X288275Y322900D02*
Y328898D01*
X291274D01*
X292274Y327898D01*
Y325899D01*
X291274Y324899D01*
X288275D01*
X290274D02*
X292274Y322900D01*
X294273D02*
X296272D01*
X295273D01*
Y328898D01*
X294273Y327898D01*
X299271D02*
X300271Y328898D01*
X302271D01*
X303270Y327898D01*
Y323900D01*
X302271Y322900D01*
X300271D01*
X299271Y323900D01*
Y327898D01*
X145900Y323400D02*
Y329398D01*
X148899D01*
X149899Y328398D01*
Y326399D01*
X148899Y325399D01*
X145900D01*
X147899D02*
X149899Y323400D01*
X151898Y324400D02*
X152898Y323400D01*
X154897D01*
X155897Y324400D01*
Y328398D01*
X154897Y329398D01*
X152898D01*
X151898Y328398D01*
Y327399D01*
X152898Y326399D01*
X155897D01*
X343350Y247350D02*
Y253348D01*
X346349D01*
X347349Y252348D01*
Y250349D01*
X346349Y249349D01*
X343350D01*
X345349D02*
X347349Y247350D01*
X349348Y252348D02*
X350348Y253348D01*
X352347D01*
X353347Y252348D01*
Y251349D01*
X352347Y250349D01*
X353347Y249349D01*
Y248350D01*
X352347Y247350D01*
X350348D01*
X349348Y248350D01*
Y249349D01*
X350348Y250349D01*
X349348Y251349D01*
Y252348D01*
X350348Y250349D02*
X352347D01*
X192600Y237700D02*
Y243698D01*
X195599D01*
X196599Y242698D01*
Y240699D01*
X195599Y239699D01*
X192600D01*
X194599D02*
X196599Y237700D01*
X198598Y243698D02*
X202597D01*
Y242698D01*
X198598Y238700D01*
Y237700D01*
X400350Y235350D02*
Y241348D01*
X403349D01*
X404349Y240348D01*
Y238349D01*
X403349Y237349D01*
X400350D01*
X402349D02*
X404349Y235350D01*
X410347Y241348D02*
X408347Y240348D01*
X406348Y238349D01*
Y236350D01*
X407348Y235350D01*
X409347D01*
X410347Y236350D01*
Y237349D01*
X409347Y238349D01*
X406348D01*
X152450Y270450D02*
Y276448D01*
X155449D01*
X156449Y275448D01*
Y273449D01*
X155449Y272449D01*
X152450D01*
X154449D02*
X156449Y270450D01*
X162447Y276448D02*
X158448D01*
Y273449D01*
X160447Y274449D01*
X161447D01*
X162447Y273449D01*
Y271450D01*
X161447Y270450D01*
X159448D01*
X158448Y271450D01*
X342850Y258850D02*
Y264848D01*
X345849D01*
X346849Y263848D01*
Y261849D01*
X345849Y260849D01*
X342850D01*
X344849D02*
X346849Y258850D01*
X351847D02*
Y264848D01*
X348848Y261849D01*
X352847D01*
X193350Y259350D02*
Y265348D01*
X196349D01*
X197349Y264348D01*
Y262349D01*
X196349Y261349D01*
X193350D01*
X195349D02*
X197349Y259350D01*
X199348Y264348D02*
X200348Y265348D01*
X202347D01*
X203347Y264348D01*
Y263349D01*
X202347Y262349D01*
X201347D01*
X202347D01*
X203347Y261349D01*
Y260350D01*
X202347Y259350D01*
X200348D01*
X199348Y260350D01*
X385850Y235350D02*
Y241348D01*
X388849D01*
X389849Y240348D01*
Y238349D01*
X388849Y237349D01*
X385850D01*
X387849D02*
X389849Y235350D01*
X395847D02*
X391848D01*
X395847Y239349D01*
Y240348D01*
X394847Y241348D01*
X392848D01*
X391848Y240348D01*
X226100Y275700D02*
Y281698D01*
X229099D01*
X230099Y280698D01*
Y278699D01*
X229099Y277699D01*
X226100D01*
X228099D02*
X230099Y275700D01*
X232098D02*
X234097D01*
X233098D01*
Y281698D01*
X232098Y280698D01*
X114100Y291400D02*
Y297398D01*
X117099D01*
X118099Y296398D01*
Y294399D01*
X117099Y293399D01*
X114100D01*
X124097Y291400D02*
X120098D01*
X124097Y295399D01*
Y296398D01*
X123097Y297398D01*
X121098D01*
X120098Y296398D01*
X106910Y215350D02*
Y221348D01*
X109909D01*
X110908Y220348D01*
Y218349D01*
X109909Y217349D01*
X106910D01*
X112908Y215350D02*
X114907D01*
X113908D01*
Y221348D01*
X112908Y220348D01*
X256575Y497098D02*
Y491100D01*
X259574D01*
X260574Y492100D01*
Y496098D01*
X259574Y497098D01*
X256575D01*
X266572Y496098D02*
X265572Y497098D01*
X263573D01*
X262573Y496098D01*
Y495099D01*
X263573Y494099D01*
X265572D01*
X266572Y493099D01*
Y492100D01*
X265572Y491100D01*
X263573D01*
X262573Y492100D01*
X268571Y491100D02*
X270570D01*
X269571D01*
Y497098D01*
X268571Y496098D01*
X245199Y304198D02*
X244199Y305198D01*
X242200D01*
X241200Y304198D01*
Y300200D01*
X242200Y299200D01*
X244199D01*
X245199Y300200D01*
X247198Y299200D02*
Y305198D01*
X250197D01*
X251197Y304198D01*
Y302199D01*
X250197Y301199D01*
X247198D01*
X249197D02*
X251197Y299200D01*
X253196D02*
X255195D01*
X254196D01*
Y305198D01*
X253196Y304198D01*
X250099Y250198D02*
X249099Y251198D01*
X247100D01*
X246100Y250198D01*
Y246200D01*
X247100Y245200D01*
X249099D01*
X250099Y246200D01*
X252098Y245200D02*
X254097D01*
X253098D01*
Y251198D01*
X252098Y250198D01*
X257096Y245200D02*
X259096D01*
X258096D01*
Y251198D01*
X257096Y250198D01*
X210649Y242648D02*
X209649Y243648D01*
X207650D01*
X206650Y242648D01*
Y238650D01*
X207650Y237650D01*
X209649D01*
X210649Y238650D01*
X212648Y237650D02*
X214647D01*
X213648D01*
Y243648D01*
X212648Y242648D01*
X217646D02*
X218646Y243648D01*
X220645D01*
X221645Y242648D01*
Y238650D01*
X220645Y237650D01*
X218646D01*
X217646Y238650D01*
Y242648D01*
X226599Y250198D02*
X225599Y251198D01*
X223600D01*
X222600Y250198D01*
Y246200D01*
X223600Y245200D01*
X225599D01*
X226599Y246200D01*
X228598D02*
X229598Y245200D01*
X231597D01*
X232597Y246200D01*
Y250198D01*
X231597Y251198D01*
X229598D01*
X228598Y250198D01*
Y249199D01*
X229598Y248199D01*
X232597D01*
X249149Y271848D02*
X248149Y272848D01*
X246150D01*
X245150Y271848D01*
Y267850D01*
X246150Y266850D01*
X248149D01*
X249149Y267850D01*
X251148Y271848D02*
X252148Y272848D01*
X254147D01*
X255147Y271848D01*
Y270849D01*
X254147Y269849D01*
X255147Y268849D01*
Y267850D01*
X254147Y266850D01*
X252148D01*
X251148Y267850D01*
Y268849D01*
X252148Y269849D01*
X251148Y270849D01*
Y271848D01*
X252148Y269849D02*
X254147D01*
X206668Y135348D02*
X205669Y136348D01*
X203669D01*
X202670Y135348D01*
Y131350D01*
X203669Y130350D01*
X205669D01*
X206668Y131350D01*
X208668Y136348D02*
X212667D01*
Y135348D01*
X208668Y131350D01*
Y130350D01*
X142859Y215698D02*
X141859Y216698D01*
X139859D01*
X138860Y215698D01*
Y211700D01*
X139859Y210700D01*
X141859D01*
X142859Y211700D01*
X148857Y216698D02*
X146857Y215698D01*
X144858Y213699D01*
Y211700D01*
X145858Y210700D01*
X147857D01*
X148857Y211700D01*
Y212699D01*
X147857Y213699D01*
X144858D01*
X280668Y135348D02*
X279669Y136348D01*
X277669D01*
X276670Y135348D01*
Y131350D01*
X277669Y130350D01*
X279669D01*
X280668Y131350D01*
X286666Y136348D02*
X282668D01*
Y133349D01*
X284667Y134349D01*
X285667D01*
X286666Y133349D01*
Y131350D01*
X285667Y130350D01*
X283667D01*
X282668Y131350D01*
X244099Y214698D02*
X243099Y215698D01*
X241100D01*
X240100Y214698D01*
Y210700D01*
X241100Y209700D01*
X243099D01*
X244099Y210700D01*
X249097Y209700D02*
Y215698D01*
X246098Y212699D01*
X250097D01*
X205709Y116948D02*
X204709Y117948D01*
X202710D01*
X201710Y116948D01*
Y112950D01*
X202710Y111950D01*
X204709D01*
X205709Y112950D01*
X207708Y116948D02*
X208708Y117948D01*
X210707D01*
X211707Y116948D01*
Y115949D01*
X210707Y114949D01*
X209707D01*
X210707D01*
X211707Y113949D01*
Y112950D01*
X210707Y111950D01*
X208708D01*
X207708Y112950D01*
X281709Y115448D02*
X280709Y116448D01*
X278710D01*
X277710Y115448D01*
Y111450D01*
X278710Y110450D01*
X280709D01*
X281709Y111450D01*
X287707Y110450D02*
X283708D01*
X287707Y114449D01*
Y115448D01*
X286707Y116448D01*
X284708D01*
X283708Y115448D01*
X127358Y217598D02*
X126359Y218598D01*
X124360D01*
X123360Y217598D01*
Y213600D01*
X124360Y212600D01*
X126359D01*
X127358Y213600D01*
X129358Y212600D02*
X131357D01*
X130358D01*
Y218598D01*
X129358Y217598D01*
X102000Y285498D02*
Y282166D01*
X103666Y280500D01*
X105332Y282166D01*
Y285498D01*
X106998Y282999D02*
X110331D01*
X108665Y284665D02*
Y281333D01*
X102500Y274998D02*
Y271666D01*
X104166Y270000D01*
X105832Y271666D01*
Y274998D01*
X107498Y272499D02*
X110831D01*
X103500Y255998D02*
X105166D01*
X104333D01*
Y251000D01*
X103500D01*
X105166D01*
X107665Y253499D02*
X110998D01*
X103500Y266498D02*
X105166D01*
X104333D01*
Y261500D01*
X103500D01*
X105166D01*
X107665Y263999D02*
X110998D01*
X109331Y265665D02*
Y262333D01*
D29*
X205800Y339800D02*
G03*
X208200Y339800I1200J0D01*
G01*
X294800Y266146D02*
G03*
X297200Y266146I1200J0D01*
G01*
X282820Y215500D02*
G03*
X285220Y215500I1200J0D01*
G01*
X207820Y217000D02*
G03*
X210220Y217000I1200J0D01*
G01*
X220150Y338510D02*
Y339800D01*
Y328510D02*
Y333490D01*
X193850Y302200D02*
X220150D01*
Y303490D01*
X193850Y339800D02*
X220150D01*
X193850Y338510D02*
Y339800D01*
Y328510D02*
Y333490D01*
Y318510D02*
Y323490D01*
Y308510D02*
Y313490D01*
Y302200D02*
Y303490D01*
X220150Y308510D02*
Y313490D01*
Y318510D02*
Y323490D01*
X393000Y296300D02*
X394886D01*
X393114Y306000D02*
X395000D01*
X256600Y287650D02*
Y288790D01*
X244400Y287650D02*
X256600D01*
X244400Y294210D02*
Y295350D01*
X256600D01*
Y294210D02*
Y295350D01*
X244400Y287650D02*
Y288790D01*
X309150Y264856D02*
Y266146D01*
Y254856D02*
Y259836D01*
X282850Y228546D02*
X309150D01*
Y229836D01*
X282850Y266146D02*
X309150D01*
X282850Y264856D02*
Y266146D01*
Y254856D02*
Y259836D01*
Y244856D02*
Y249836D01*
Y234856D02*
Y239836D01*
Y228546D02*
Y229836D01*
X309150Y234856D02*
Y239836D01*
Y244856D02*
Y249836D01*
X391000Y254300D02*
X392886D01*
X391114Y264000D02*
X393000D01*
X262020Y135500D02*
X306020D01*
Y215500D01*
X262020D02*
X306020D01*
X262020Y135500D02*
Y215500D01*
X187020Y137000D02*
X231020D01*
Y217000D01*
X187020D02*
X231020D01*
X187020Y137000D02*
Y217000D01*
D30*
X393592Y304337D02*
G03*
X394408Y304337I408J913D01*
G01*
X391592Y262337D02*
G03*
X392408Y262337I408J913D01*
G01*
X396900Y300700D02*
X396950Y301449D01*
X394900Y258700D02*
X394950Y259449D01*
X207000Y321000D02*
Y325998D01*
X209499D01*
X210332Y325165D01*
Y323499D01*
X209499Y322666D01*
X207000D01*
X211998Y321000D02*
Y325998D01*
X215331Y321000D01*
Y325998D01*
X188375Y347065D02*
X191707Y343733D01*
X188375D02*
X191707Y347065D01*
X188375Y345399D02*
X191707D01*
X190041Y343733D02*
Y347065D01*
X388900Y313624D02*
X392232Y310292D01*
X388900D02*
X392232Y313624D01*
X388900Y311958D02*
X392232D01*
X390566Y310292D02*
Y313624D01*
X261000Y287335D02*
X257668Y290667D01*
X261000D02*
X257668Y287335D01*
X261000Y289001D02*
X257668D01*
X259334Y290667D02*
Y287335D01*
X277375Y273412D02*
X280707Y270079D01*
X277375D02*
X280707Y273412D01*
X277375Y271746D02*
X280707D01*
X279041Y270079D02*
Y273412D01*
X386900Y271624D02*
X390232Y268292D01*
X386900D02*
X390232Y271624D01*
X386900Y269958D02*
X390232D01*
X388566Y268292D02*
Y271624D01*
D31*
X493996Y147756D02*
G03*
X493996Y147756I-492J0D01*
G01*
D32*
X500492Y156811D02*
G03*
X500492Y156811I-1181J0D01*
G01*
D33*
X152819Y319650D02*
X155181D01*
X152819Y313350D02*
X155181D01*
X244520Y257941D02*
Y263059D01*
X164799Y249925D02*
Y253075D01*
X152201Y249925D02*
Y253075D01*
X222441Y228020D02*
X227559D01*
X245941D02*
X251059D01*
X206441Y220520D02*
X211559D01*
X106260Y212000D02*
X116260D01*
Y192000D02*
Y212000D01*
X106260Y192000D02*
X116260D01*
X106260D02*
Y212000D01*
X207185Y102047D02*
X210335D01*
X207185Y107953D02*
X210335D01*
X283185Y100547D02*
X286335D01*
X283185Y106453D02*
X286335D01*
X129213Y199925D02*
Y203075D01*
X123307Y199925D02*
Y203075D01*
X133500Y248000D02*
Y288000D01*
X115167Y251333D02*
X128500D01*
X113500Y253000D02*
X115167Y251333D01*
X113500Y253000D02*
X115167Y254667D01*
X128500D01*
X115167Y261333D02*
X128500D01*
X113500Y263000D02*
X115167Y261333D01*
X113500Y263000D02*
X115167Y264667D01*
X128500D01*
X115167Y271333D02*
X128500D01*
X113500Y273000D02*
X115167Y271333D01*
X113500Y273000D02*
X115167Y274667D01*
X128500D01*
X115167Y281333D02*
X128500D01*
X113500Y283000D02*
X115167Y281333D01*
X113500Y283000D02*
X115167Y284667D01*
X128500D01*
Y288000D02*
X133500D01*
X128500Y248000D02*
X133500D01*
X128500D02*
Y288000D01*
X239941Y192520D02*
X245059D01*
X276039Y121441D02*
Y126559D01*
X138701Y193520D02*
X143819D01*
X202039Y121441D02*
Y126559D01*
X495374Y152874D02*
X529626D01*
X495374Y187126D02*
X529626D01*
X495374Y152874D02*
Y187126D01*
X529626Y152874D02*
Y187126D01*
D34*
X572146Y344953D02*
Y486685D01*
X257185D02*
X572146D01*
X257185Y344953D02*
Y486685D01*
Y344953D02*
X572146D01*
M02*
