M48
;Layer_Color=9474304
;FILE_FORMAT=2:5
INCH,LZ
;TYPE=PLATED
T1F00S00C0.02800
T2F00S00C0.03543
T3F00S00C0.04724
T4F00S00C0.10630
%
T01
X05042Y01387
X05597
X05494Y01813
X05202Y01853
X051565Y01715
X05341Y02053
X05009Y0247
X04366
X0439736Y0261559
X04277Y0229
X04Y02358
X03625
X035024Y01858
X03917Y02809
X040665Y029125
X03841Y02989
X03052Y02528
X0306643Y0204343
X02664Y02348
X02367Y023176
X024214Y026226
X0252Y0306
X01599Y01955
X01641Y01715
X05009Y03245
X0492Y03456
X05711Y03637
T02
X011126Y0197
Y0207
X01385Y0253
Y0263
Y0273
Y0283
T03
X039065Y0352827
X040065
X041065
X042065
X043065
X044065
X045065
X046065
X047065
X048065
X049065
X050065
X051065
X052065
X0531004
X054065
T04
X0267028Y0354795
X0562303
Y0476843
X0267028
M30
