G04 Layer_Color=16711935*
%FSLAX25Y25*%
%MOIN*%
G70*
G01*
G75*
%ADD46R,0.07887X0.07887*%
%ADD47C,0.07887*%
%ADD48C,0.15430*%
%ADD49R,0.06706X0.06706*%
%ADD50C,0.06706*%
%ADD51C,0.05800*%
D46*
X540650Y352827D02*
D03*
D47*
X531004D02*
D03*
X520650D02*
D03*
X510650D02*
D03*
X500650D02*
D03*
X490650D02*
D03*
X480650D02*
D03*
X470650D02*
D03*
X460650D02*
D03*
X450650D02*
D03*
X440650D02*
D03*
X430650D02*
D03*
X420650D02*
D03*
X410650D02*
D03*
X400650D02*
D03*
X390650D02*
D03*
D48*
X562303Y354795D02*
D03*
Y476843D02*
D03*
X267028Y354795D02*
D03*
Y476843D02*
D03*
D49*
X111260Y197000D02*
D03*
X138500Y283000D02*
D03*
D50*
X111260Y207000D02*
D03*
X138500Y253000D02*
D03*
Y263000D02*
D03*
Y273000D02*
D03*
D51*
X159900Y195500D02*
D03*
X164100Y171500D02*
D03*
X350240Y185800D02*
D03*
X549400Y181300D02*
D03*
X384100Y298900D02*
D03*
X391700Y280900D02*
D03*
X534100Y205300D02*
D03*
X571100Y363700D02*
D03*
X500900Y247000D02*
D03*
X436600D02*
D03*
X252000Y306000D02*
D03*
X400000Y235800D02*
D03*
X362500D02*
D03*
X305200Y252800D02*
D03*
X500900Y324500D02*
D03*
X236700Y231760D02*
D03*
X266400Y234800D02*
D03*
X492000Y345600D02*
D03*
X504200Y138700D02*
D03*
X559700D02*
D03*
X520200Y185300D02*
D03*
X427700Y229000D02*
D03*
X406650Y291250D02*
D03*
X515650Y171500D02*
D03*
X439736Y261559D02*
D03*
X242140Y262260D02*
D03*
X306643Y204343D02*
D03*
M02*
