G04 Layer_Color=16711935*
%FSLAX25Y25*%
%MOIN*%
G70*
G01*
G75*
%ADD30C,0.00300*%
%ADD52C,0.00000*%
%ADD53C,0.00394*%
%ADD54C,0.00100*%
D30*
X188375Y347065D02*
X191707Y343733D01*
X188375D02*
X191707Y347065D01*
X188375Y345399D02*
X191707D01*
X190041Y343733D02*
Y347065D01*
X388900Y313624D02*
X392232Y310292D01*
X388900D02*
X392232Y313624D01*
X388900Y311958D02*
X392232D01*
X390566Y310292D02*
Y313624D01*
X277375Y273412D02*
X280707Y270079D01*
X277375D02*
X280707Y273412D01*
X277375Y271746D02*
X280707D01*
X279041Y270079D02*
Y273412D01*
X386900Y271624D02*
X390232Y268292D01*
X386900D02*
X390232Y271624D01*
X386900Y269958D02*
X390232D01*
X388566Y268292D02*
Y271624D01*
D52*
X205800Y339800D02*
G03*
X208200Y339800I1200J0D01*
G01*
X294800Y266146D02*
G03*
X297200Y266146I1200J0D01*
G01*
X282820Y215500D02*
G03*
X285220Y215500I1200J0D01*
G01*
X207820Y217000D02*
G03*
X210220Y217000I1200J0D01*
G01*
D53*
X498327Y153858D02*
G03*
X498327Y153858I-1969J0D01*
G01*
X202067Y101457D02*
X215453D01*
X202067Y108543D02*
X215453D01*
Y101457D02*
Y108543D01*
X202067Y101457D02*
Y108543D01*
X278067Y99957D02*
X291453D01*
X278067Y107043D02*
X291453D01*
Y99957D02*
Y107043D01*
X278067Y99957D02*
Y107043D01*
X129803Y194807D02*
Y208193D01*
X122717Y194807D02*
Y208193D01*
X129803D01*
X122717Y194807D02*
X129803D01*
X492815Y150315D02*
X532185D01*
X492815Y189685D02*
X532185D01*
X492815Y150315D02*
Y189685D01*
X532185Y150315D02*
Y189685D01*
D54*
X256100Y288150D02*
Y294850D01*
X244900Y288150D02*
X256100D01*
X244900D02*
Y294850D01*
X256100D01*
X254425D02*
X256100Y293175D01*
X254425Y288150D02*
X256100Y289825D01*
X242900Y290200D02*
X244900D01*
X242900D02*
Y292800D01*
X244900D01*
Y290200D02*
Y292800D01*
X256100D02*
X258100D01*
Y290200D02*
Y292800D01*
X256100Y290200D02*
X258100D01*
X256100D02*
Y292800D01*
M02*
