G04 Layer_Color=8421504*
%FSLAX25Y25*%
%MOIN*%
G70*
G01*
G75*
%ADD10R,0.05118X0.05906*%
%ADD11R,0.06299X0.07087*%
%ADD12R,0.09650X0.02400*%
%ADD13R,0.04600X0.01400*%
%ADD14R,0.05906X0.05118*%
%ADD15R,0.05300X0.02800*%
%ADD16R,0.13386X0.12795*%
%ADD17R,0.04331X0.06693*%
%ADD18R,0.06693X0.04331*%
%ADD19R,0.07700X0.03800*%
%ADD20O,0.02165X0.06890*%
%ADD21O,0.06890X0.02165*%
D10*
X276240Y306000D02*
D03*
X268760D02*
D03*
X297740Y316500D02*
D03*
X290260D02*
D03*
X159240Y289000D02*
D03*
X151760D02*
D03*
X397740Y328500D02*
D03*
X390260D02*
D03*
X350240Y203500D02*
D03*
X342760D02*
D03*
X255740Y260500D02*
D03*
X248260D02*
D03*
X395240Y229000D02*
D03*
X387760D02*
D03*
X202740Y253000D02*
D03*
X195260D02*
D03*
X352240Y252500D02*
D03*
X344760D02*
D03*
X409740Y229000D02*
D03*
X402260D02*
D03*
X352740Y241000D02*
D03*
X345260D02*
D03*
X158000Y171500D02*
D03*
X150520D02*
D03*
X287260Y124000D02*
D03*
X279780D02*
D03*
X213260D02*
D03*
X205780D02*
D03*
D11*
X148488Y316500D02*
D03*
X159512D02*
D03*
D12*
X189375Y336000D02*
D03*
Y326000D02*
D03*
Y316000D02*
D03*
Y306000D02*
D03*
X224625D02*
D03*
Y316000D02*
D03*
Y326000D02*
D03*
Y336000D02*
D03*
X278375Y262346D02*
D03*
Y252346D02*
D03*
Y242346D02*
D03*
Y232346D02*
D03*
X313625D02*
D03*
Y242346D02*
D03*
Y252346D02*
D03*
Y262346D02*
D03*
D13*
X389900Y303559D02*
D03*
Y301000D02*
D03*
Y298441D02*
D03*
X398100D02*
D03*
Y303559D02*
D03*
X387900Y261559D02*
D03*
Y259000D02*
D03*
Y256441D02*
D03*
X396100D02*
D03*
Y261559D02*
D03*
D14*
X252000Y318760D02*
D03*
Y326240D02*
D03*
X584000Y265240D02*
D03*
Y257760D02*
D03*
X228500Y262260D02*
D03*
Y269740D02*
D03*
X225000Y239240D02*
D03*
Y231760D02*
D03*
X195000Y231740D02*
D03*
Y224260D02*
D03*
X248500Y239240D02*
D03*
Y231760D02*
D03*
X209000Y231740D02*
D03*
Y224260D02*
D03*
X168760Y204740D02*
D03*
Y197260D02*
D03*
X242500Y203740D02*
D03*
Y196260D02*
D03*
X141260Y204740D02*
D03*
Y197260D02*
D03*
D15*
X244150Y291500D02*
D03*
X256850D02*
D03*
D16*
X158500Y260654D02*
D03*
Y242346D02*
D03*
D17*
X214075Y105000D02*
D03*
X203445D02*
D03*
X290075Y103500D02*
D03*
X279445D02*
D03*
D18*
X126260Y206815D02*
D03*
Y196185D02*
D03*
D19*
X269020Y205500D02*
D03*
Y195500D02*
D03*
Y165500D02*
D03*
Y155500D02*
D03*
Y145500D02*
D03*
X299020D02*
D03*
Y205500D02*
D03*
X194020Y207000D02*
D03*
Y197000D02*
D03*
Y167000D02*
D03*
Y157000D02*
D03*
Y147000D02*
D03*
X224020D02*
D03*
Y207000D02*
D03*
D20*
X496752Y147756D02*
D03*
X499902D02*
D03*
X503051D02*
D03*
X506201D02*
D03*
X509350D02*
D03*
X512500D02*
D03*
X515650D02*
D03*
X518799D02*
D03*
X521949D02*
D03*
X525098D02*
D03*
X528248D02*
D03*
Y192244D02*
D03*
X525098D02*
D03*
X521949D02*
D03*
X518799D02*
D03*
X515650D02*
D03*
X512500D02*
D03*
X509350D02*
D03*
X506201D02*
D03*
X503051D02*
D03*
X499902D02*
D03*
X496752D02*
D03*
D21*
X534744Y154252D02*
D03*
Y157402D02*
D03*
Y160551D02*
D03*
Y163701D02*
D03*
Y166850D02*
D03*
Y170000D02*
D03*
Y173150D02*
D03*
Y176299D02*
D03*
Y179449D02*
D03*
Y182598D02*
D03*
Y185748D02*
D03*
X490256D02*
D03*
Y182598D02*
D03*
Y179449D02*
D03*
Y176299D02*
D03*
Y173150D02*
D03*
Y170000D02*
D03*
Y166850D02*
D03*
Y163701D02*
D03*
Y160551D02*
D03*
Y157402D02*
D03*
Y154252D02*
D03*
M02*
