G04 Layer_Color=32768*
%FSLAX25Y25*%
%MOIN*%
G70*
G01*
G75*
%ADD29C,0.00600*%
%ADD53C,0.00394*%
G36*
X319450Y227547D02*
X272550D01*
Y267146D01*
X319450D01*
Y227547D01*
D02*
G37*
G36*
X232020Y136000D02*
X186020D01*
Y218000D01*
X232020D01*
Y136000D01*
D02*
G37*
G36*
X307020Y134500D02*
X261020D01*
Y216500D01*
X307020D01*
Y134500D01*
D02*
G37*
G36*
X399400Y253750D02*
X384600D01*
Y264250D01*
X399400D01*
Y253750D01*
D02*
G37*
G36*
X230450Y301200D02*
X183550D01*
Y340800D01*
X230450D01*
Y301200D01*
D02*
G37*
G36*
X401400Y295750D02*
X386600D01*
Y306250D01*
X401400D01*
Y295750D01*
D02*
G37*
G36*
X257100Y295650D02*
X260500D01*
Y287350D01*
X257100D01*
Y287150D01*
X243900D01*
Y287350D01*
X240500D01*
Y295650D01*
X243900D01*
Y295850D01*
X257100D01*
Y295650D01*
D02*
G37*
D29*
X183550Y301200D02*
Y340800D01*
X230450D01*
Y301200D02*
Y340800D01*
X183550Y301200D02*
X230450D01*
X386600Y295750D02*
Y306250D01*
X401400D01*
Y295750D02*
Y306250D01*
X386600Y295750D02*
X401400D01*
X243900Y295850D02*
X257100D01*
X243900Y295650D02*
Y295850D01*
Y287150D02*
Y287350D01*
Y287150D02*
X257100D01*
Y287350D01*
Y295650D02*
Y295850D01*
Y295650D02*
X260500D01*
X240500D02*
X243900D01*
X240500Y287350D02*
Y295650D01*
Y287350D02*
X243900D01*
X257100D02*
X260500D01*
Y295650D01*
X272550Y227546D02*
Y267146D01*
X319450D01*
Y227546D02*
Y267146D01*
X272550Y227546D02*
X319450D01*
X384600Y253750D02*
Y264250D01*
X399400D01*
Y253750D02*
Y264250D01*
X384600Y253750D02*
X399400D01*
X261020Y134500D02*
Y216500D01*
X307020D01*
Y134500D02*
Y216500D01*
X261020Y134500D02*
X307020D01*
X186020Y136000D02*
Y218000D01*
X232020D01*
Y136000D02*
Y218000D01*
X186020Y136000D02*
X232020D01*
D53*
X208760Y103032D02*
Y106969D01*
X206791Y105000D02*
X210728D01*
X200886Y101260D02*
X216634D01*
X200886Y108740D02*
X216634D01*
Y101260D02*
Y108740D01*
X200886Y101260D02*
Y108740D01*
X284760Y101532D02*
Y105469D01*
X282791Y103500D02*
X286728D01*
X276886Y99760D02*
X292634D01*
X276886Y107240D02*
X292634D01*
Y99760D02*
Y107240D01*
X276886Y99760D02*
Y107240D01*
X124291Y201500D02*
X128228D01*
X126260Y199532D02*
Y203469D01*
X130000Y193626D02*
Y209374D01*
X122520Y193626D02*
Y209374D01*
X130000D01*
X122520Y193626D02*
X130000D01*
X485925Y143425D02*
X539075D01*
X485925Y196575D02*
X539075D01*
X485925Y143425D02*
Y196575D01*
X539075Y143425D02*
Y196575D01*
X512500Y168031D02*
Y171969D01*
X510531Y170000D02*
X514469D01*
M02*
